<svg viewBox="0 0 30 30" fill="none" xmlns="http://www.w3.org/2000/svg">
  <path fill-rule="evenodd" clip-rule="evenodd" d="M14.032 12.4c0 4.16-.01 4.887-.072 4.819-.04-.045-.836-1.423-1.77-3.064C9.33 9.135 9.15 8.825 9.1 8.825c-.06 0-1.6.877-1.63.93-.012.02.466.895 1.064 1.943l2.404 4.218c.726 1.271 1.307 2.324 1.294 2.339-.014.014-1.91-1.08-4.215-2.43l-4.19-2.458-.47.825c-.26.454-.471.843-.471.864 0 .021.194.152.431.29l4.2 2.459 3.767 2.205-4.893.027-4.892.028V21.998l4.976.014 4.975.014 1.76-1.767c.967-.973 1.773-1.768 1.79-1.768.028 0 1.475 1.438 2.641 2.626.274.279.594.597.712.707l.215.2 4.966-.013 4.965-.013V20.065l-4.892-.028-4.893-.027 4.2-2.458c2.31-1.352 4.193-2.485 4.186-2.518a14.395 14.395 0 0 0-.459-.845c-.316-.558-.468-.778-.526-.762-.082.022-7.658 4.443-8.12 4.739-.137.087-.249.134-.249.105 0-.03 1.072-1.933 2.383-4.23 1.31-2.298 2.387-4.204 2.394-4.236.01-.056-1.452-.974-1.559-.977-.043-.002-3.774 6.389-4.666 7.99-.139.25-.27.456-.292.456-.021.001-.039-2.198-.039-4.886V7.5h-1.936v4.9Z" fill="#F5F5F5"/>
</svg>
