<svg viewBox="0 0 127 20" fill="none" xmlns="http://www.w3.org/2000/svg">
  <path fill-rule="evenodd" clip-rule="evenodd" d="M9.355 8.267c0 2.773-.008 3.258-.048 3.212a98.14 98.14 0 0 1-1.18-2.042C6.22 6.09 6.1 5.884 6.066 5.884c-.04 0-1.066.584-1.086.619-.008.014.31.597.709 1.295l1.603 2.812c.483.848.871 1.55.862 1.56-.01.01-1.274-.72-2.81-1.62L2.552 8.91l-.314.55a9.029 9.029 0 0 0-.313.576c0 .014.13.102.287.194l2.8 1.639 2.511 1.47-3.261.018L1 13.377v1.288l3.317.01 3.317.01 1.173-1.18a49.752 49.752 0 0 1 1.194-1.178c.018 0 .983.96 1.76 1.751.183.186.396.398.475.471l.143.134 3.31-.009L19 14.665v-1.288l-3.262-.019-3.261-.018 2.8-1.639c1.54-.9 2.795-1.656 2.79-1.678a9.653 9.653 0 0 0-.305-.563c-.211-.373-.313-.52-.351-.509-.055.015-5.106 2.963-5.414 3.16-.091.058-.166.09-.166.07 0-.02.715-1.289 1.589-2.82a210.065 210.065 0 0 0 1.596-2.824c.007-.038-.968-.65-1.04-.652-.028 0-2.515 4.26-3.11 5.328-.092.166-.18.303-.194.303-.015 0-.027-1.465-.027-3.257V5h-1.29v3.267Z" fill="#F5F5F5"/>
  <path d="M29.637 9.762c2.388.263 3.963.763 3.963 2.613 0 1.425-1.388 2.725-4.1 2.725-2.875 0-4.1-1.575-4.1-3.2h1.45c.025.775.575 2 2.65 2 2.038 0 2.6-.838 2.6-1.45 0-.775-.575-1.162-2.613-1.362-2.5-.25-3.737-1.013-3.737-2.513 0-1.375 1.375-2.475 3.762-2.475 2.588 0 3.65 1.375 3.688 2.8h-1.4c0-.675-.613-1.6-2.313-1.6-1.737 0-2.237.675-2.237 1.2 0 .537.275 1.025 2.387 1.262Zm4.76 3.45c0-1.462 1.225-1.912 2.625-2 1.312-.087 2.987.026 2.975-.612-.013-.525-.325-1.05-2.025-1.05-1.4 0-1.888.425-2 1.05h-1.375c.275-1.463 1.637-2.1 3.425-2.1 1.75 0 3.375.5 3.375 2.85V15h-1.4v-.613c0-.237.062-.412.137-.75.025-.112.075-.225-.012-.25-.075-.024-.113.063-.163.125-.637.925-1.625 1.588-3.05 1.588-1.387 0-2.512-.8-2.512-1.887Zm5.6-1.662c-.425.475-1.738.537-2.813.675-.85.113-1.387.338-1.387.925 0 .512.587.925 1.725.8 1.187-.125 2.462-1.087 2.475-2.4Zm7.055-3.05c1.663 0 2.85.825 2.85 2.7V15h-1.4v-3.45c0-1.488-.787-1.9-1.825-1.9-1.137 0-2.375 1.037-2.375 2.563V15h-1.4V6h1.4v3.125c0 .262-.025.525-.137.85-.038.113-.088.225.012.263.075.024.1-.063.138-.113.45-.662 1.337-1.625 2.737-1.625Zm3.849 4.713c0-1.463 1.224-1.913 2.624-2 1.313-.088 2.988.025 2.976-.613-.013-.525-.325-1.05-2.026-1.05-1.4 0-1.887.425-2 1.05H51.1c.276-1.463 1.638-2.1 3.425-2.1 1.75 0 3.376.5 3.376 2.85V15h-1.4v-.613c0-.237.062-.412.137-.75.025-.112.075-.225-.012-.25-.075-.024-.113.063-.163.125-.638.925-1.625 1.588-3.05 1.588-1.387 0-2.512-.8-2.512-1.887Zm5.6-1.663c-.425.475-1.738.537-2.813.675-.85.113-1.388.338-1.388.925 0 .512.588.925 1.726.8 1.187-.125 2.462-1.087 2.474-2.4Zm4.107-1.263c.063.013.1-.05.125-.112.438-1.038 1.363-1.675 2.975-1.675v1.325c-1.862-.125-3 .738-3 2.413V15h-1.4V8.6h1.4v.625c0 .263-.037.463-.137.838-.025.1-.063.2.037.224Zm3.403 2.925c0-1.462 1.225-1.912 2.625-2 1.312-.087 2.987.026 2.975-.612-.013-.525-.325-1.05-2.025-1.05-1.4 0-1.888.425-2 1.05H64.21c.275-1.463 1.637-2.1 3.425-2.1 1.75 0 3.375.5 3.375 2.85V15h-1.4v-.613c0-.237.062-.412.137-.75.025-.112.075-.225-.012-.25-.075-.024-.113.063-.163.125-.637.925-1.625 1.588-3.05 1.588-1.387 0-2.512-.8-2.512-1.887Zm5.6-1.662c-.425.475-1.738.537-2.813.675-.85.113-1.387.338-1.387.925 0 .512.587.925 1.725.8 1.187-.125 2.462-1.087 2.475-2.4Zm6.204-4.15V6.2h7.8v1.2h-3.15V15h-1.5V7.4h-3.15Zm14.61 4.313c0 .175-.025.325-.05.437l-5.763.025c.113.975.988 1.775 2.388 1.775 1.05 0 1.562-.425 1.837-1.112h1.45c-.312 1.187-1.362 2.262-3.325 2.262-2.412 0-3.737-1.487-3.737-3.3 0-1.925 1.5-3.3 3.7-3.3 1.712 0 3.5.938 3.5 3.213ZM87.012 9.6c-1.437 0-2.075.713-2.3 1.525h4.313c-.1-.875-.838-1.525-2.013-1.525Zm4.208 3.175h1.375c.013.438.425 1.225 2.075 1.225 1.525 0 1.95-.488 1.95-.85 0-.575-.675-.725-2.4-.875-2.075-.175-2.762-.963-2.762-1.825 0-.962 1.062-1.95 3.187-1.95 1.963 0 3.025.925 3.138 2.125H96.42c-.05-.363-.412-1.025-1.812-1.025-1.263 0-1.75.412-1.75.787 0 .413.312.663 1.987.813 2.125.188 3.175.713 3.175 1.788 0 1.3-1.287 2.112-3.412 2.112-2.113 0-3.313-.912-3.388-2.325ZM103.728 8.6v1.15h-2.2v3.15c0 .725.15.95.85.95h1.35V15h-1.65c-1.325 0-1.95-.488-1.95-1.875V9.75h-1.6V8.6h1.6V6.8h1.4v1.8h2.2Zm5.458-.1c1.662 0 2.85.825 2.85 2.7V15h-1.4v-3.45c0-1.488-.788-1.9-1.825-1.9-1.138 0-2.375 1.037-2.375 2.563V15h-1.4V8.6h1.4v.525c0 .262-.025.525-.138.85-.037.113-.087.225.013.263.075.024.1-.063.137-.113.425-.675 1.338-1.625 2.738-1.625Zm11.048 3.213c0 .175-.025.325-.05.437l-5.762.025c.112.975.987 1.775 2.387 1.775 1.05 0 1.563-.425 1.838-1.112h1.45c-.313 1.187-1.363 2.262-3.325 2.262-2.413 0-3.738-1.487-3.738-3.3 0-1.925 1.5-3.3 3.7-3.3 1.713 0 3.5.938 3.5 3.213ZM116.822 9.6c-1.438 0-2.075.713-2.3 1.525h4.312c-.1-.875-.837-1.525-2.012-1.525Zm8.805-1v1.15h-2.2v3.15c0 .725.15.95.85.95h1.35V15h-1.65c-1.325 0-1.95-.488-1.95-1.875V9.75h-1.6V8.6h1.6V6.8h1.4v1.8h2.2Z" fill="#fff"/>
</svg>
